<mxfile host="app.diagrams.net" agent="Mozilla/5.0 (Windows NT 10.0; Win64; x64) AppleWebKit/537.36 (KHTML, like Gecko) Chrome/131.0.0.0 Safari/537.36" version="25.0.3">
  <diagram name="Page-1" id="2YBvvXClWsGukQMizWep">
    <mxGraphModel dx="576" dy="365" grid="1" gridSize="10" guides="1" tooltips="1" connect="1" arrows="1" fold="1" page="1" pageScale="1" pageWidth="850" pageHeight="1100" math="0" shadow="0">
      <root>
        <mxCell id="0" />
        <mxCell id="1" parent="0" />
        <mxCell id="Jm7EUICJISlEGoCHI4fa-1" value="user: User" style="shape=umlLifeline;perimeter=lifelinePerimeter;whiteSpace=wrap;html=1;container=0;dropTarget=0;collapsible=0;recursiveResize=0;outlineConnect=0;portConstraint=eastwest;newEdgeStyle={&quot;edgeStyle&quot;:&quot;elbowEdgeStyle&quot;,&quot;elbow&quot;:&quot;vertical&quot;,&quot;curved&quot;:0,&quot;rounded&quot;:0};" vertex="1" parent="1">
          <mxGeometry x="130" y="200" width="100" height="520" as="geometry" />
        </mxCell>
        <mxCell id="Jm7EUICJISlEGoCHI4fa-2" value="" style="html=1;points=[];perimeter=orthogonalPerimeter;outlineConnect=0;targetShapes=umlLifeline;portConstraint=eastwest;newEdgeStyle={&quot;edgeStyle&quot;:&quot;elbowEdgeStyle&quot;,&quot;elbow&quot;:&quot;vertical&quot;,&quot;curved&quot;:0,&quot;rounded&quot;:0};" vertex="1" parent="Jm7EUICJISlEGoCHI4fa-1">
          <mxGeometry x="45" y="78" width="10" height="362" as="geometry" />
        </mxCell>
        <mxCell id="Jm7EUICJISlEGoCHI4fa-3" value="Web Page" style="shape=umlLifeline;perimeter=lifelinePerimeter;whiteSpace=wrap;html=1;container=0;dropTarget=0;collapsible=0;recursiveResize=0;outlineConnect=0;portConstraint=eastwest;newEdgeStyle={&quot;edgeStyle&quot;:&quot;elbowEdgeStyle&quot;,&quot;elbow&quot;:&quot;vertical&quot;,&quot;curved&quot;:0,&quot;rounded&quot;:0};" vertex="1" parent="1">
          <mxGeometry x="300" y="200" width="100" height="520" as="geometry" />
        </mxCell>
        <mxCell id="Jm7EUICJISlEGoCHI4fa-4" value="" style="html=1;points=[];perimeter=orthogonalPerimeter;outlineConnect=0;targetShapes=umlLifeline;portConstraint=eastwest;newEdgeStyle={&quot;edgeStyle&quot;:&quot;elbowEdgeStyle&quot;,&quot;elbow&quot;:&quot;vertical&quot;,&quot;curved&quot;:0,&quot;rounded&quot;:0};" vertex="1" parent="Jm7EUICJISlEGoCHI4fa-3">
          <mxGeometry x="45" y="79" width="10" height="361" as="geometry" />
        </mxCell>
        <mxCell id="Jm7EUICJISlEGoCHI4fa-5" value="Controller" style="shape=umlLifeline;perimeter=lifelinePerimeter;whiteSpace=wrap;html=1;container=0;dropTarget=0;collapsible=0;recursiveResize=0;outlineConnect=0;portConstraint=eastwest;newEdgeStyle={&quot;edgeStyle&quot;:&quot;elbowEdgeStyle&quot;,&quot;elbow&quot;:&quot;vertical&quot;,&quot;curved&quot;:0,&quot;rounded&quot;:0};" vertex="1" parent="1">
          <mxGeometry x="495" y="200" width="100" height="480" as="geometry" />
        </mxCell>
        <mxCell id="Jm7EUICJISlEGoCHI4fa-6" value="" style="html=1;points=[];perimeter=orthogonalPerimeter;outlineConnect=0;targetShapes=umlLifeline;portConstraint=eastwest;newEdgeStyle={&quot;edgeStyle&quot;:&quot;elbowEdgeStyle&quot;,&quot;elbow&quot;:&quot;vertical&quot;,&quot;curved&quot;:0,&quot;rounded&quot;:0};" vertex="1" parent="Jm7EUICJISlEGoCHI4fa-5">
          <mxGeometry x="45" y="100" width="10" height="310" as="geometry" />
        </mxCell>
        <mxCell id="Jm7EUICJISlEGoCHI4fa-7" value="User opens webpage" style="html=1;verticalAlign=bottom;startArrow=oval;endArrow=block;startSize=8;edgeStyle=elbowEdgeStyle;elbow=horizontal;curved=0;rounded=0;" edge="1" parent="1">
          <mxGeometry x="-0.397" y="2" relative="1" as="geometry">
            <mxPoint x="80" y="269" as="sourcePoint" />
            <mxPoint x="179.5" y="269" as="targetPoint" />
            <mxPoint as="offset" />
            <Array as="points">
              <mxPoint x="140" y="269" />
            </Array>
          </mxGeometry>
        </mxCell>
        <mxCell id="Jm7EUICJISlEGoCHI4fa-8" value="Passes username and password" style="html=1;verticalAlign=bottom;endArrow=block;edgeStyle=elbowEdgeStyle;elbow=vertical;curved=0;rounded=0;" edge="1" parent="1">
          <mxGeometry x="0.0595" relative="1" as="geometry">
            <mxPoint x="355" y="318" as="sourcePoint" />
            <Array as="points">
              <mxPoint x="540" y="318" />
              <mxPoint x="450" y="318" />
              <mxPoint x="450" y="266" />
            </Array>
            <mxPoint x="540" y="318" as="targetPoint" />
            <mxPoint as="offset" />
          </mxGeometry>
        </mxCell>
        <mxCell id="Jm7EUICJISlEGoCHI4fa-9" value="Display error message" style="html=1;verticalAlign=bottom;endArrow=open;dashed=1;endSize=8;edgeStyle=elbowEdgeStyle;elbow=vertical;curved=0;rounded=0;entryX=0.864;entryY=0.648;entryDx=0;entryDy=0;entryPerimeter=0;align=left;fontSize=10;" edge="1" parent="1">
          <mxGeometry x="0.997" y="-10" relative="1" as="geometry">
            <mxPoint x="356.0000000000001" y="420.27200000000005" as="targetPoint" />
            <Array as="points">
              <mxPoint x="414.36" y="420" />
            </Array>
            <mxPoint x="537.36" y="420" as="sourcePoint" />
            <mxPoint x="10" y="-10" as="offset" />
          </mxGeometry>
        </mxCell>
        <mxCell id="Jm7EUICJISlEGoCHI4fa-13" value="" style="endArrow=classic;html=1;rounded=0;" edge="1" parent="1">
          <mxGeometry width="50" height="50" relative="1" as="geometry">
            <mxPoint x="344.25" y="510" as="sourcePoint" />
            <mxPoint x="183" y="510" as="targetPoint" />
          </mxGeometry>
        </mxCell>
        <mxCell id="Jm7EUICJISlEGoCHI4fa-16" value="" style="rounded=0;whiteSpace=wrap;html=1;" vertex="1" parent="1">
          <mxGeometry x="350" y="310" width="10" height="39" as="geometry" />
        </mxCell>
        <mxCell id="Jm7EUICJISlEGoCHI4fa-19" value="" style="endArrow=none;html=1;rounded=0;" edge="1" parent="1">
          <mxGeometry width="50" height="50" relative="1" as="geometry">
            <mxPoint x="219" y="240" as="sourcePoint" />
            <mxPoint x="219" y="200" as="targetPoint" />
          </mxGeometry>
        </mxCell>
        <mxCell id="Jm7EUICJISlEGoCHI4fa-20" value="" style="endArrow=none;html=1;rounded=0;" edge="1" parent="1">
          <mxGeometry width="50" height="50" relative="1" as="geometry">
            <mxPoint x="142" y="240" as="sourcePoint" />
            <mxPoint x="142" y="200" as="targetPoint" />
          </mxGeometry>
        </mxCell>
        <mxCell id="Jm7EUICJISlEGoCHI4fa-21" value="" style="endArrow=none;html=1;rounded=0;" edge="1" parent="1">
          <mxGeometry width="50" height="50" relative="1" as="geometry">
            <mxPoint x="309" y="240" as="sourcePoint" />
            <mxPoint x="309" y="200" as="targetPoint" />
          </mxGeometry>
        </mxCell>
        <mxCell id="Jm7EUICJISlEGoCHI4fa-22" value="" style="endArrow=none;html=1;rounded=0;" edge="1" parent="1">
          <mxGeometry width="50" height="50" relative="1" as="geometry">
            <mxPoint x="390" y="241" as="sourcePoint" />
            <mxPoint x="390" y="201" as="targetPoint" />
          </mxGeometry>
        </mxCell>
        <mxCell id="Jm7EUICJISlEGoCHI4fa-23" value="User enters username and password" style="html=1;verticalAlign=bottom;endArrow=block;edgeStyle=elbowEdgeStyle;elbow=horizontal;curved=0;rounded=0;fontSize=8;align=center;" edge="1" parent="1" source="Jm7EUICJISlEGoCHI4fa-2" target="Jm7EUICJISlEGoCHI4fa-4">
          <mxGeometry x="0.0625" relative="1" as="geometry">
            <mxPoint x="190" y="300" as="sourcePoint" />
            <Array as="points">
              <mxPoint x="310" y="300" />
              <mxPoint x="285" y="300" />
              <mxPoint x="285" y="248" />
            </Array>
            <mxPoint x="375" y="300" as="targetPoint" />
            <mxPoint as="offset" />
          </mxGeometry>
        </mxCell>
        <mxCell id="Jm7EUICJISlEGoCHI4fa-25" value="" style="endArrow=classic;html=1;rounded=0;" edge="1" parent="1">
          <mxGeometry width="50" height="50" relative="1" as="geometry">
            <mxPoint x="345.0000000000001" y="600.0000000000001" as="sourcePoint" />
            <mxPoint x="185" y="600.0000000000001" as="targetPoint" />
            <Array as="points">
              <mxPoint x="260" y="600" />
            </Array>
          </mxGeometry>
        </mxCell>
        <mxCell id="Jm7EUICJISlEGoCHI4fa-29" value="UML Sequence Diagram: User Login" style="text;html=1;align=center;verticalAlign=middle;whiteSpace=wrap;rounded=0;fontFamily=Helvetica;fontSize=36;fontStyle=5" vertex="1" parent="1">
          <mxGeometry x="207" y="28" width="435.25" height="110" as="geometry" />
        </mxCell>
        <mxCell id="Jm7EUICJISlEGoCHI4fa-30" value="Bit Benders" style="text;html=1;align=center;verticalAlign=middle;whiteSpace=wrap;rounded=0;fontStyle=2;fontSize=20;" vertex="1" parent="1">
          <mxGeometry x="291.13" y="128" width="266.99" height="40" as="geometry" />
        </mxCell>
        <mxCell id="Jm7EUICJISlEGoCHI4fa-31" value="Model" style="shape=umlLifeline;perimeter=lifelinePerimeter;whiteSpace=wrap;html=1;container=0;dropTarget=0;collapsible=0;recursiveResize=0;outlineConnect=0;portConstraint=eastwest;newEdgeStyle={&quot;edgeStyle&quot;:&quot;elbowEdgeStyle&quot;,&quot;elbow&quot;:&quot;vertical&quot;,&quot;curved&quot;:0,&quot;rounded&quot;:0};" vertex="1" parent="1">
          <mxGeometry x="660" y="200" width="100" height="480" as="geometry" />
        </mxCell>
        <mxCell id="Jm7EUICJISlEGoCHI4fa-32" value="" style="html=1;points=[];perimeter=orthogonalPerimeter;outlineConnect=0;targetShapes=umlLifeline;portConstraint=eastwest;newEdgeStyle={&quot;edgeStyle&quot;:&quot;elbowEdgeStyle&quot;,&quot;elbow&quot;:&quot;vertical&quot;,&quot;curved&quot;:0,&quot;rounded&quot;:0};" vertex="1" parent="Jm7EUICJISlEGoCHI4fa-31">
          <mxGeometry x="45" y="100" width="10" height="310" as="geometry" />
        </mxCell>
        <mxCell id="Jm7EUICJISlEGoCHI4fa-33" value="" style="rounded=0;whiteSpace=wrap;html=1;" vertex="1" parent="1">
          <mxGeometry x="546" y="327" width="10" height="39" as="geometry" />
        </mxCell>
        <mxCell id="Jm7EUICJISlEGoCHI4fa-34" value="&lt;font style=&quot;font-size: 9px;&quot;&gt;Do username and password&amp;nbsp;&lt;/font&gt;&lt;div&gt;&lt;font style=&quot;font-size: 9px;&quot;&gt;match for user account?&lt;/font&gt;&lt;/div&gt;" style="html=1;verticalAlign=bottom;endArrow=block;edgeStyle=elbowEdgeStyle;elbow=vertical;curved=0;rounded=0;" edge="1" parent="1" target="Jm7EUICJISlEGoCHI4fa-32">
          <mxGeometry x="-0.0067" relative="1" as="geometry">
            <mxPoint x="556" y="340" as="sourcePoint" />
            <Array as="points">
              <mxPoint x="610" y="340" />
              <mxPoint x="651" y="340" />
              <mxPoint x="651" y="288" />
            </Array>
            <mxPoint x="700" y="350" as="targetPoint" />
            <mxPoint as="offset" />
          </mxGeometry>
        </mxCell>
        <mxCell id="Jm7EUICJISlEGoCHI4fa-36" value="&amp;nbsp;alt" style="shape=card;whiteSpace=wrap;html=1;fillColor=none;size=20;rotation=0;direction=west;align=left;" vertex="1" parent="1">
          <mxGeometry x="470" y="366" width="40" height="20" as="geometry" />
        </mxCell>
        <mxCell id="Jm7EUICJISlEGoCHI4fa-37" value="If username does not exist in system..." style="rounded=0;whiteSpace=wrap;html=1;fontSize=6;" vertex="1" parent="1">
          <mxGeometry x="527" y="375" width="65" height="18" as="geometry" />
        </mxCell>
        <mxCell id="Jm7EUICJISlEGoCHI4fa-40" value="else..." style="rounded=0;whiteSpace=wrap;html=1;fontSize=6;" vertex="1" parent="1">
          <mxGeometry x="527" y="543" width="50" height="10" as="geometry" />
        </mxCell>
        <mxCell id="Jm7EUICJISlEGoCHI4fa-43" value="&lt;font style=&quot;font-size: 9px;&quot;&gt;Error message&lt;/font&gt;" style="html=1;verticalAlign=bottom;endArrow=open;dashed=1;endSize=8;edgeStyle=elbowEdgeStyle;elbow=vertical;curved=0;rounded=0;" edge="1" parent="1">
          <mxGeometry x="0.0013" relative="1" as="geometry">
            <mxPoint x="550" y="407" as="targetPoint" />
            <Array as="points">
              <mxPoint x="578.36" y="407" />
            </Array>
            <mxPoint x="705" y="407" as="sourcePoint" />
            <mxPoint as="offset" />
          </mxGeometry>
        </mxCell>
        <mxCell id="Jm7EUICJISlEGoCHI4fa-44" value="&lt;font style=&quot;font-size: 9px;&quot;&gt;Error message&lt;/font&gt;" style="html=1;verticalAlign=bottom;endArrow=open;dashed=1;endSize=8;edgeStyle=elbowEdgeStyle;elbow=vertical;curved=0;rounded=0;" edge="1" parent="1">
          <mxGeometry x="0.0013" relative="1" as="geometry">
            <mxPoint x="550" y="478.8" as="targetPoint" />
            <Array as="points">
              <mxPoint x="578.36" y="478.8" />
            </Array>
            <mxPoint x="705" y="478.8" as="sourcePoint" />
            <mxPoint as="offset" />
          </mxGeometry>
        </mxCell>
        <mxCell id="Jm7EUICJISlEGoCHI4fa-45" value="If password for user does not match..." style="rounded=0;whiteSpace=wrap;html=1;fontSize=6;" vertex="1" parent="1">
          <mxGeometry x="527" y="446" width="65" height="18" as="geometry" />
        </mxCell>
        <mxCell id="Jm7EUICJISlEGoCHI4fa-46" value="" style="endArrow=none;dashed=1;html=1;rounded=0;dashPattern=1 1;" edge="1" parent="1">
          <mxGeometry width="50" height="50" relative="1" as="geometry">
            <mxPoint x="470" y="440" as="sourcePoint" />
            <mxPoint x="705" y="440" as="targetPoint" />
          </mxGeometry>
        </mxCell>
        <mxCell id="Jm7EUICJISlEGoCHI4fa-47" value="" style="endArrow=none;dashed=1;html=1;rounded=0;dashPattern=1 1;" edge="1" parent="1">
          <mxGeometry width="50" height="50" relative="1" as="geometry">
            <mxPoint x="470" y="512.8" as="sourcePoint" />
            <mxPoint x="705" y="512.8" as="targetPoint" />
          </mxGeometry>
        </mxCell>
        <mxCell id="Jm7EUICJISlEGoCHI4fa-48" value="&lt;font style=&quot;font-size: 9px;&quot;&gt;UserID&lt;/font&gt;" style="html=1;verticalAlign=bottom;endArrow=open;dashed=1;endSize=8;edgeStyle=elbowEdgeStyle;elbow=vertical;curved=0;rounded=0;" edge="1" parent="1">
          <mxGeometry x="0.0013" relative="1" as="geometry">
            <mxPoint x="550" y="568" as="targetPoint" />
            <Array as="points">
              <mxPoint x="578.36" y="568" />
            </Array>
            <mxPoint x="705" y="568" as="sourcePoint" />
            <mxPoint as="offset" />
          </mxGeometry>
        </mxCell>
        <mxCell id="Jm7EUICJISlEGoCHI4fa-49" value="Display error message" style="html=1;verticalAlign=bottom;endArrow=open;dashed=1;endSize=8;edgeStyle=elbowEdgeStyle;elbow=vertical;curved=0;rounded=0;entryX=0.864;entryY=0.648;entryDx=0;entryDy=0;entryPerimeter=0;align=left;fontSize=10;" edge="1" parent="1">
          <mxGeometry x="0.997" y="-6" relative="1" as="geometry">
            <mxPoint x="356.0000000000001" y="496.27200000000005" as="targetPoint" />
            <Array as="points">
              <mxPoint x="414.36" y="496" />
            </Array>
            <mxPoint x="537.36" y="496" as="sourcePoint" />
            <mxPoint x="6" y="-6" as="offset" />
          </mxGeometry>
        </mxCell>
        <mxCell id="Jm7EUICJISlEGoCHI4fa-51" value="Display main account&amp;nbsp;&lt;div&gt;page for user&lt;/div&gt;" style="html=1;verticalAlign=bottom;endArrow=open;dashed=1;endSize=8;edgeStyle=elbowEdgeStyle;elbow=vertical;curved=0;rounded=0;entryX=0.864;entryY=0.648;entryDx=0;entryDy=0;entryPerimeter=0;align=left;fontSize=10;" edge="1" parent="1">
          <mxGeometry x="0.96" y="-10" relative="1" as="geometry">
            <mxPoint x="357.0000000000001" y="580.272" as="targetPoint" />
            <Array as="points">
              <mxPoint x="415.36" y="580" />
            </Array>
            <mxPoint x="538.36" y="580" as="sourcePoint" />
            <mxPoint as="offset" />
          </mxGeometry>
        </mxCell>
        <mxCell id="Jm7EUICJISlEGoCHI4fa-52" value="User sees account page" style="text;html=1;align=center;verticalAlign=middle;whiteSpace=wrap;rounded=0;fontSize=10;" vertex="1" parent="1">
          <mxGeometry x="230" y="570" width="80" height="30" as="geometry" />
        </mxCell>
        <mxCell id="Jm7EUICJISlEGoCHI4fa-53" value="User sees login page indicating error" style="text;html=1;align=center;verticalAlign=middle;whiteSpace=wrap;rounded=0;fontSize=10;" vertex="1" parent="1">
          <mxGeometry x="216.51" y="480" width="100" height="30" as="geometry" />
        </mxCell>
        <mxCell id="Jm7EUICJISlEGoCHI4fa-54" value="" style="rounded=0;whiteSpace=wrap;html=1;fillColor=none;" vertex="1" parent="1">
          <mxGeometry x="470" y="366" width="270" height="234" as="geometry" />
        </mxCell>
      </root>
    </mxGraphModel>
  </diagram>
</mxfile>
